<svg xmlns="http://www.w3.org/2000/svg" height="38" width="160" viewBox="0 0 1177.91 356.82" fill="white">
    <path fill="white" d="M156.46,1.59A176.4724,176.4724,0,0,0,96.29,20.24c-48.46,24.8-81.9,68.82-93.5,123.42-3.41,16.04-3.75,50.62-.68,67.11C15.65,281.98,71.95,339.3,142.25,353.41c11.26,2.27,33.78,4.21,35.03,3.07.45-.45.68-80.65.57-178.24L177.5.91,170.68.8A100.9045,100.9045,0,0,0,156.46,1.59Z"/>
    <path d="M192.86,104.19V208.5l7.17-.68c37.42-3.53,69.39-25.14,85.54-57.9,7.96-16.27,10.24-26.39,10.12-46.07-.11-19.56-2.27-29.12-10.01-44.93C269.3,25.59,238.13,4.09,201.39.8L192.86,0Z"/>
    <path d="M493.38,136.27l.34,17.97,6.26,1.59c32.53,8.3,46.86,51.75,27.19,82.35a46.234,46.234,0,0,1-27.19,19.56l-6.26,1.59-.34,17.86-.34,17.74h3.18c6.03,0,22.18-4.55,30.48-8.64,31.39-15.24,49.82-50.84,45.95-88.61-4.32-42.77-32.53-72.68-74.16-78.6l-5.46-.68Z"/>
    <path d="M900.36,120.34c-32.3,6.48-56.08,29.35-65.06,62.56-3.41,12.74-3.3,34.81.11,47.77,3.41,13.19,11.6,28.66,19.56,37.42,7.28,7.85,18.65,16.15,27.87,20.02,7.05,3.07,22.52,6.82,28.1,6.82h4.21V260.01l-5.91-1.36c-14.22-3.18-27.07-12.85-33.21-24.91-16.49-32.53,0-71.89,32.87-78.71l6.26-1.25V118.63l-3.64.11A86.125,86.125,0,0,0,900.36,120.34Z"/>
    <path d="M605.76,206.79v85.88h34.12V224.43h44.36V190.3H639.77l.34-17.18.34-17.06,25.37.11,25.25.11V120.91H605.75v85.88Z"/>
    <path d="M720.3,121.6c-.46.45-.8,39.13-.8,85.99v85.08h89.97l-.34-16.83-.34-16.72-26.96-.34-27.07-.23-.23-68.59-.34-68.48-16.61-.34C728.49,121.03,720.76,121.25,720.3,121.6Z"/>
    <path d="M1025.49,121.94c0,.68,13.31,22.07,29.57,47.77l29.57,46.64v76.33h34.12V214.99l29.57-46.52c16.27-25.59,29.57-46.75,29.57-46.98,0-.34-9.33-.57-20.7-.57h-20.82l-17.52,29.69-17.52,29.69-2.73-4.44c-1.48-2.39-9.44-15.7-17.63-29.69l-14.9-25.25h-20.36C1033.9,120.91,1025.49,121.37,1025.49,121.94Z"/>
    <path d="M193.09,291.42l.34,64.95H354.95l-.11-9.9c-.11-12.63-2.73-23.09-9.1-36.63-21.95-46.75-75.87-78.37-141.27-82.69l-11.6-.8Z"/>
    <path d="M464.16,120.23c-32.3,6.48-56.08,29.35-65.06,62.56-3.41,12.74-3.3,34.81.11,47.77,3.41,13.19,11.6,28.66,19.56,37.42,7.28,7.85,18.65,16.15,27.87,20.02,7.05,3.07,22.52,6.82,28.1,6.82h4.21V259.9l-5.91-1.36c-14.22-3.18-27.07-12.85-33.21-24.91-16.49-32.53,0-71.89,32.87-78.71l6.26-1.25V118.52l-3.64.11A84.17,84.17,0,0,0,464.16,120.23Z"/>
    <path d="M930.42,136.14l.34,17.97,6.26,1.59c32.53,8.3,46.86,51.75,27.19,82.35a46.234,46.234,0,0,1-27.19,19.56l-6.26,1.59-.34,17.86-.34,17.74h3.18c6.03,0,22.18-4.55,30.48-8.64,31.39-15.24,49.82-50.84,45.95-88.61-4.32-42.77-32.53-72.68-74.16-78.6l-5.46-.68Z"/>
</svg>