<svg xmlns="http://www.w3.org/2000/svg" height="32" width="40" viewBox="0 0 1177.91 356.82" fill="white">
    <path fill="white" d="M156.46,1.59A176.4724,176.4724,0,0,0,96.29,20.24c-48.46,24.8-81.9,68.82-93.5,123.42-3.41,16.04-3.75,50.62-.68,67.11C15.65,281.98,71.95,339.3,142.25,353.41c11.26,2.27,33.78,4.21,35.03,3.07.45-.45.68-80.65.57-178.24L177.5.91,170.68.8A100.9045,100.9045,0,0,0,156.46,1.59Z"/>
    <path d="M192.86,104.19V208.5l7.17-.68c37.42-3.53,69.39-25.14,85.54-57.9,7.96-16.27,10.24-26.39,10.12-46.07-.11-19.56-2.27-29.12-10.01-44.93C269.3,25.59,238.13,4.09,201.39.8L192.86,0Z"/>
    <path d="M193.09,291.42l.34,64.95H354.95l-.11-9.9c-.11-12.63-2.73-23.09-9.1-36.63-21.95-46.75-75.87-78.37-141.27-82.69l-11.6-.8Z"/>
</svg>